# xmcd
#
# Track frame offsets: 
#        150
#        20325
#        57454
#        83831
#        101630
#        130176
#        154897
#        188402
#        217303
#        270338
#
# Disc length: 4021 seconds
#
# Revision: 0
# Processed by: cddbd v1.5.2PL0 Copyright (c) Steve Scherf et al.
# Submitted via: ExactAudioCopy v0.95b4
#
DISCID=850fb30a
DTITLE=Manfred Häder and Band - Live nach eins
DYEAR=2008
DGENRE=Blues
TTITLE0=Lange Schatten
TTITLE1=Rote Lippen soll man küssen
TTITLE2=Instrumental Inferno
TTITLE3=Ich pack meine Koffer
TTITLE4=Born under a bad sign
TTITLE5=Zu schön
TTITLE6=Exblusiv
TTITLE7=Alles versaut
TTITLE8=Ein Dutzend Tränen
TTITLE9=Mercy, mercy, mercy
EXTD=
EXTT0=
EXTT1=
EXTT2=
EXTT3=
EXTT4=
EXTT5=
EXTT6=
EXTT7=
EXTT8=
EXTT9=
PLAYORDER=
